<mxfile host="app.diagrams.net" agent="Mozilla/5.0 (Windows NT 10.0; Win64; x64) AppleWebKit/537.36 (KHTML, like Gecko) Chrome/129.0.0.0 Safari/537.36" version="24.7.17">
  <diagram name="Página-1" id="1swtO3ggNtqPQfGn56Uj">
    <mxGraphModel dx="1120" dy="500" grid="1" gridSize="10" guides="1" tooltips="1" connect="1" arrows="1" fold="1" page="1" pageScale="1" pageWidth="827" pageHeight="1169" math="0" shadow="0">
      <root>
        <mxCell id="0" />
        <mxCell id="1" parent="0" />
        <mxCell id="RM9ocA_V_AxcIt5sL82G-34" value="" style="rounded=0;whiteSpace=wrap;html=1;" vertex="1" parent="1">
          <mxGeometry x="160" width="520" height="670" as="geometry" />
        </mxCell>
        <mxCell id="RM9ocA_V_AxcIt5sL82G-1" value="Usuario" style="shape=umlActor;verticalLabelPosition=bottom;verticalAlign=top;html=1;outlineConnect=0;" vertex="1" parent="1">
          <mxGeometry x="110" y="95" width="30" height="60" as="geometry" />
        </mxCell>
        <mxCell id="RM9ocA_V_AxcIt5sL82G-5" value="Cadastra digitais" style="ellipse;whiteSpace=wrap;html=1;" vertex="1" parent="1">
          <mxGeometry x="230" y="270" width="90" height="50" as="geometry" />
        </mxCell>
        <mxCell id="RM9ocA_V_AxcIt5sL82G-6" value="" style="endArrow=none;html=1;rounded=0;entryX=0;entryY=1;entryDx=0;entryDy=0;" edge="1" parent="1" source="RM9ocA_V_AxcIt5sL82G-39" target="RM9ocA_V_AxcIt5sL82G-5">
          <mxGeometry width="50" height="50" relative="1" as="geometry">
            <mxPoint x="280" y="210" as="sourcePoint" />
            <mxPoint x="330" y="160" as="targetPoint" />
          </mxGeometry>
        </mxCell>
        <mxCell id="RM9ocA_V_AxcIt5sL82G-15" value="Autenticação da digital" style="ellipse;whiteSpace=wrap;html=1;" vertex="1" parent="1">
          <mxGeometry x="400" y="260" width="90" height="60" as="geometry" />
        </mxCell>
        <mxCell id="RM9ocA_V_AxcIt5sL82G-20" value="" style="endArrow=none;dashed=1;html=1;rounded=0;exitX=1;exitY=0.5;exitDx=0;exitDy=0;entryX=0;entryY=0.5;entryDx=0;entryDy=0;" edge="1" parent="1" source="RM9ocA_V_AxcIt5sL82G-5" target="RM9ocA_V_AxcIt5sL82G-15">
          <mxGeometry width="50" height="50" relative="1" as="geometry">
            <mxPoint x="290" y="270" as="sourcePoint" />
            <mxPoint x="390" y="140" as="targetPoint" />
          </mxGeometry>
        </mxCell>
        <mxCell id="RM9ocA_V_AxcIt5sL82G-21" value="&amp;lt;&amp;lt;include&amp;gt;&amp;gt;" style="text;html=1;align=center;verticalAlign=middle;resizable=0;points=[];autosize=1;strokeColor=none;fillColor=none;" vertex="1" parent="1">
          <mxGeometry x="310" y="270" width="90" height="30" as="geometry" />
        </mxCell>
        <mxCell id="RM9ocA_V_AxcIt5sL82G-23" value="Ler digital" style="ellipse;whiteSpace=wrap;html=1;" vertex="1" parent="1">
          <mxGeometry x="410" y="90" width="90" height="50" as="geometry" />
        </mxCell>
        <mxCell id="RM9ocA_V_AxcIt5sL82G-24" value="Libera o laboratório" style="ellipse;whiteSpace=wrap;html=1;" vertex="1" parent="1">
          <mxGeometry x="570" y="20" width="90" height="50" as="geometry" />
        </mxCell>
        <mxCell id="RM9ocA_V_AxcIt5sL82G-27" value="" style="endArrow=none;dashed=1;html=1;dashPattern=1 3;strokeWidth=2;rounded=0;exitX=1;exitY=0.5;exitDx=0;exitDy=0;entryX=0;entryY=0.5;entryDx=0;entryDy=0;" edge="1" parent="1" source="RM9ocA_V_AxcIt5sL82G-23" target="RM9ocA_V_AxcIt5sL82G-24">
          <mxGeometry width="50" height="50" relative="1" as="geometry">
            <mxPoint x="350" y="260" as="sourcePoint" />
            <mxPoint x="400" y="210" as="targetPoint" />
          </mxGeometry>
        </mxCell>
        <mxCell id="RM9ocA_V_AxcIt5sL82G-30" value="&amp;lt;&amp;lt;extends&amp;gt;&amp;gt;" style="edgeLabel;html=1;align=center;verticalAlign=middle;resizable=0;points=[];" vertex="1" connectable="0" parent="RM9ocA_V_AxcIt5sL82G-27">
          <mxGeometry x="0.0762" y="-2" relative="1" as="geometry">
            <mxPoint y="-11" as="offset" />
          </mxGeometry>
        </mxCell>
        <mxCell id="RM9ocA_V_AxcIt5sL82G-28" value="Não libera laboratório" style="ellipse;whiteSpace=wrap;html=1;" vertex="1" parent="1">
          <mxGeometry x="560" y="180" width="90" height="50" as="geometry" />
        </mxCell>
        <mxCell id="RM9ocA_V_AxcIt5sL82G-29" value="" style="endArrow=none;dashed=1;html=1;dashPattern=1 3;strokeWidth=2;rounded=0;exitX=1;exitY=1;exitDx=0;exitDy=0;" edge="1" parent="1" source="RM9ocA_V_AxcIt5sL82G-23" target="RM9ocA_V_AxcIt5sL82G-28">
          <mxGeometry width="50" height="50" relative="1" as="geometry">
            <mxPoint x="320" y="195" as="sourcePoint" />
            <mxPoint x="440" y="195" as="targetPoint" />
          </mxGeometry>
        </mxCell>
        <mxCell id="RM9ocA_V_AxcIt5sL82G-31" value="&amp;lt;&amp;lt;extends&amp;gt;&amp;gt;" style="edgeLabel;html=1;align=center;verticalAlign=middle;resizable=0;points=[];" vertex="1" connectable="0" parent="RM9ocA_V_AxcIt5sL82G-29">
          <mxGeometry x="-0.0563" relative="1" as="geometry">
            <mxPoint as="offset" />
          </mxGeometry>
        </mxCell>
        <mxCell id="RM9ocA_V_AxcIt5sL82G-36" value="Acesso ao log" style="ellipse;whiteSpace=wrap;html=1;" vertex="1" parent="1">
          <mxGeometry x="228.5" y="560" width="90" height="50" as="geometry" />
        </mxCell>
        <mxCell id="RM9ocA_V_AxcIt5sL82G-40" style="edgeStyle=orthogonalEdgeStyle;rounded=0;orthogonalLoop=1;jettySize=auto;html=1;" edge="1" parent="1" source="RM9ocA_V_AxcIt5sL82G-39" target="RM9ocA_V_AxcIt5sL82G-1">
          <mxGeometry relative="1" as="geometry" />
        </mxCell>
        <mxCell id="RM9ocA_V_AxcIt5sL82G-39" value="ADM" style="shape=umlActor;verticalLabelPosition=bottom;verticalAlign=top;html=1;outlineConnect=0;" vertex="1" parent="1">
          <mxGeometry x="110" y="340" width="30" height="60" as="geometry" />
        </mxCell>
        <mxCell id="RM9ocA_V_AxcIt5sL82G-41" value="" style="endArrow=none;html=1;rounded=0;entryX=0;entryY=0.5;entryDx=0;entryDy=0;" edge="1" parent="1" source="RM9ocA_V_AxcIt5sL82G-39" target="RM9ocA_V_AxcIt5sL82G-36">
          <mxGeometry width="50" height="50" relative="1" as="geometry">
            <mxPoint x="170" y="340" as="sourcePoint" />
            <mxPoint x="220" y="290" as="targetPoint" />
          </mxGeometry>
        </mxCell>
        <mxCell id="RM9ocA_V_AxcIt5sL82G-43" value="Gerenciamento de permissões" style="ellipse;whiteSpace=wrap;html=1;" vertex="1" parent="1">
          <mxGeometry x="228.5" y="480" width="90" height="60" as="geometry" />
        </mxCell>
        <mxCell id="RM9ocA_V_AxcIt5sL82G-44" value="" style="endArrow=none;html=1;rounded=0;entryX=0;entryY=0.5;entryDx=0;entryDy=0;" edge="1" parent="1" source="RM9ocA_V_AxcIt5sL82G-39" target="RM9ocA_V_AxcIt5sL82G-43">
          <mxGeometry width="50" height="50" relative="1" as="geometry">
            <mxPoint x="150" y="348" as="sourcePoint" />
            <mxPoint x="250" y="335" as="targetPoint" />
          </mxGeometry>
        </mxCell>
        <mxCell id="RM9ocA_V_AxcIt5sL82G-48" value="" style="endArrow=none;dashed=1;html=1;dashPattern=1 3;strokeWidth=2;rounded=0;exitX=1;exitY=0.5;exitDx=0;exitDy=0;entryX=0;entryY=0.5;entryDx=0;entryDy=0;" edge="1" parent="1" source="RM9ocA_V_AxcIt5sL82G-36" target="RM9ocA_V_AxcIt5sL82G-50">
          <mxGeometry width="50" height="50" relative="1" as="geometry">
            <mxPoint x="320" y="410" as="sourcePoint" />
            <mxPoint x="460" y="459" as="targetPoint" />
          </mxGeometry>
        </mxCell>
        <mxCell id="RM9ocA_V_AxcIt5sL82G-49" value="&amp;lt;&amp;lt;extends&amp;gt;&amp;gt;" style="edgeLabel;html=1;align=center;verticalAlign=middle;resizable=0;points=[];" vertex="1" connectable="0" parent="RM9ocA_V_AxcIt5sL82G-48">
          <mxGeometry x="-0.0563" relative="1" as="geometry">
            <mxPoint as="offset" />
          </mxGeometry>
        </mxCell>
        <mxCell id="RM9ocA_V_AxcIt5sL82G-50" value="Backup relatórios" style="ellipse;whiteSpace=wrap;html=1;" vertex="1" parent="1">
          <mxGeometry x="410" y="560" width="90" height="50" as="geometry" />
        </mxCell>
        <mxCell id="RM9ocA_V_AxcIt5sL82G-53" value="Inseri a digital" style="ellipse;whiteSpace=wrap;html=1;" vertex="1" parent="1">
          <mxGeometry x="210" y="100" width="90" height="50" as="geometry" />
        </mxCell>
        <mxCell id="RM9ocA_V_AxcIt5sL82G-54" value="" style="endArrow=none;html=1;rounded=0;entryX=0;entryY=0.5;entryDx=0;entryDy=0;" edge="1" parent="1" source="RM9ocA_V_AxcIt5sL82G-1" target="RM9ocA_V_AxcIt5sL82G-53">
          <mxGeometry width="50" height="50" relative="1" as="geometry">
            <mxPoint x="390" y="290" as="sourcePoint" />
            <mxPoint x="440" y="240" as="targetPoint" />
          </mxGeometry>
        </mxCell>
        <mxCell id="RM9ocA_V_AxcIt5sL82G-55" value="" style="endArrow=none;dashed=1;html=1;dashPattern=1 3;strokeWidth=2;rounded=0;exitX=1;exitY=0.5;exitDx=0;exitDy=0;entryX=0;entryY=0.5;entryDx=0;entryDy=0;" edge="1" parent="1" source="RM9ocA_V_AxcIt5sL82G-53" target="RM9ocA_V_AxcIt5sL82G-23">
          <mxGeometry width="50" height="50" relative="1" as="geometry">
            <mxPoint x="390" y="290" as="sourcePoint" />
            <mxPoint x="440" y="240" as="targetPoint" />
          </mxGeometry>
        </mxCell>
        <mxCell id="RM9ocA_V_AxcIt5sL82G-56" value="&amp;lt;&amp;lt;include&amp;gt;&amp;gt;" style="edgeLabel;html=1;align=center;verticalAlign=middle;resizable=0;points=[];" vertex="1" connectable="0" parent="RM9ocA_V_AxcIt5sL82G-55">
          <mxGeometry x="-0.244" y="-4" relative="1" as="geometry">
            <mxPoint x="15" as="offset" />
          </mxGeometry>
        </mxCell>
        <mxCell id="RM9ocA_V_AxcIt5sL82G-57" value="Login" style="ellipse;whiteSpace=wrap;html=1;" vertex="1" parent="1">
          <mxGeometry x="230" y="200" width="90" height="50" as="geometry" />
        </mxCell>
        <mxCell id="RM9ocA_V_AxcIt5sL82G-58" value="" style="endArrow=none;html=1;rounded=0;exitX=1;exitY=0.3333333333333333;exitDx=0;exitDy=0;exitPerimeter=0;entryX=0;entryY=1;entryDx=0;entryDy=0;" edge="1" parent="1" source="RM9ocA_V_AxcIt5sL82G-39" target="RM9ocA_V_AxcIt5sL82G-57">
          <mxGeometry width="50" height="50" relative="1" as="geometry">
            <mxPoint x="280" y="260" as="sourcePoint" />
            <mxPoint x="330" y="210" as="targetPoint" />
          </mxGeometry>
        </mxCell>
        <mxCell id="RM9ocA_V_AxcIt5sL82G-59" value="Consultar usuários" style="ellipse;whiteSpace=wrap;html=1;" vertex="1" parent="1">
          <mxGeometry x="230" y="345" width="90" height="50" as="geometry" />
        </mxCell>
        <mxCell id="RM9ocA_V_AxcIt5sL82G-60" value="" style="endArrow=none;html=1;rounded=0;entryX=0;entryY=0.5;entryDx=0;entryDy=0;" edge="1" parent="1" source="RM9ocA_V_AxcIt5sL82G-39" target="RM9ocA_V_AxcIt5sL82G-59">
          <mxGeometry width="50" height="50" relative="1" as="geometry">
            <mxPoint x="170" y="400" as="sourcePoint" />
            <mxPoint x="220" y="350" as="targetPoint" />
          </mxGeometry>
        </mxCell>
        <mxCell id="RM9ocA_V_AxcIt5sL82G-61" value="Editar dados de usuários" style="ellipse;whiteSpace=wrap;html=1;" vertex="1" parent="1">
          <mxGeometry x="228.5" y="410" width="90" height="50" as="geometry" />
        </mxCell>
        <mxCell id="RM9ocA_V_AxcIt5sL82G-62" value="" style="endArrow=none;html=1;rounded=0;entryX=0;entryY=0.5;entryDx=0;entryDy=0;" edge="1" parent="1" source="RM9ocA_V_AxcIt5sL82G-39" target="RM9ocA_V_AxcIt5sL82G-61">
          <mxGeometry width="50" height="50" relative="1" as="geometry">
            <mxPoint x="280" y="490" as="sourcePoint" />
            <mxPoint x="330" y="440" as="targetPoint" />
          </mxGeometry>
        </mxCell>
      </root>
    </mxGraphModel>
  </diagram>
</mxfile>
